<svg xmlns="http://www.w3.org/2000/svg" viewBox="0 0 160 160">
  <defs>
    <radialGradient id="jeonA" cx=".4" cy=".32" r=".8">
      <stop offset="0" stop-color="#ffe37e"/>
      <stop offset=".65" stop-color="#f2b24f"/>
      <stop offset="1" stop-color="#d38d31"/>
    </radialGradient>
  </defs>
  <g transform="translate(14 14)">
    <ellipse cx="66" cy="112" rx="50" ry="14" fill="#ba6c2d" opacity=".14"/>
    <circle cx="66" cy="64" r="48" fill="url(#jeonA)"/>
    <circle cx="66" cy="64" r="43" fill="#f7c65d" opacity=".75"/>
    <g fill="#5ca551">
      <rect x="28" y="42" width="10" height="34" rx="5" transform="rotate(-28 33 59)"/>
      <rect x="42" y="70" width="10" height="30" rx="5" transform="rotate(36 47 85)"/>
      <rect x="83" y="33" width="10" height="36" rx="5" transform="rotate(20 88 51)"/>
      <rect x="96" y="63" width="10" height="32" rx="5" transform="rotate(-18 101 79)"/>
    </g>
    <g fill="#f16d4d">
      <circle cx="44" cy="58" r="8"/>
      <circle cx="86" cy="53" r="8"/>
      <circle cx="74" cy="82" r="8"/>
    </g>
    <path d="M28 91c18 8 44 10 73 4" fill="none" stroke="#d48e35" stroke-linecap="round" stroke-width="6"/>
  </g>
</svg>
