<svg xmlns="http://www.w3.org/2000/svg" viewBox="0 0 160 160">
  <g transform="translate(12 16)">
    <ellipse cx="68" cy="112" rx="48" ry="12" fill="#bc6c64" opacity=".14"/>
    <g transform="translate(10 24)">
      <g transform="rotate(-16 26 26)">
        <rect x="4" y="20" width="44" height="30" rx="14" fill="#fff7ef"/>
        <rect x="2" y="10" width="48" height="22" rx="11" fill="#ff8f83"/>
        <path d="M10 16h30" fill="none" stroke="#ffd3d0" stroke-linecap="round" stroke-width="4"/>
      </g>
      <g transform="translate(54 0) rotate(14 26 26)">
        <rect x="4" y="20" width="44" height="30" rx="14" fill="#fff7ef"/>
        <rect x="2" y="10" width="48" height="22" rx="11" fill="#ffb35e"/>
        <path d="M12 18h28" fill="none" stroke="#ffe1b2" stroke-linecap="round" stroke-width="4"/>
      </g>
      <g transform="translate(22 44) rotate(6 26 26)">
        <rect x="4" y="20" width="44" height="30" rx="14" fill="#fff7ef"/>
        <rect x="2" y="10" width="48" height="22" rx="11" fill="#ff6b6b"/>
        <path d="M12 18h28" fill="none" stroke="#ffd9d8" stroke-linecap="round" stroke-width="4"/>
      </g>
      <g transform="translate(78 46) rotate(-10 18 18)">
        <circle cx="18" cy="18" r="18" fill="#1f252e"/>
        <circle cx="18" cy="18" r="12" fill="#fff7e8"/>
        <circle cx="18" cy="18" r="6.5" fill="#ff8c6e"/>
        <circle cx="18" cy="18" r="2.8" fill="#7ecb71"/>
      </g>
    </g>
  </g>
</svg>
