<svg xmlns="http://www.w3.org/2000/svg" viewBox="0 0 160 160">
  <defs>
    <linearGradient id="tangA" x1="0" x2="1" y1="0" y2="1">
      <stop offset="0" stop-color="#ffcb73"/>
      <stop offset="1" stop-color="#d57a32"/>
    </linearGradient>
  </defs>
  <g transform="translate(12 14)">
    <ellipse cx="68" cy="112" rx="50" ry="13" fill="#a55c33" opacity=".14"/>
    <g fill="url(#tangA)">
      <rect x="18" y="30" width="34" height="28" rx="10" transform="rotate(-10 35 44)"/>
      <rect x="48" y="18" width="36" height="28" rx="10" transform="rotate(12 66 32)"/>
      <rect x="84" y="28" width="34" height="28" rx="10" transform="rotate(-8 101 42)"/>
      <rect x="30" y="62" width="38" height="30" rx="10" transform="rotate(8 49 77)"/>
      <rect x="72" y="60" width="36" height="30" rx="10" transform="rotate(-12 90 75)"/>
      <rect x="52" y="88" width="42" height="28" rx="10" transform="rotate(4 73 102)"/>
    </g>
    <path d="M22 70c22-22 58-30 95-17" fill="none" stroke="#ff6d4d" stroke-linecap="round" stroke-width="10"/>
    <path d="M30 84c20 12 43 19 73 17" fill="none" stroke="#ffd95e" stroke-linecap="round" stroke-width="7"/>
    <circle cx="102" cy="76" r="7" fill="#7fc75b"/>
    <circle cx="44" cy="48" r="6" fill="#7fc75b"/>
  </g>
</svg>
